<svg xmlns="http://www.w3.org/2000/svg" viewBox="0 0 140.93 35.95"><defs><style>.cls-1{fill:#3b3b3b;}.cls-2{fill:#532bc3;}</style></defs><title>Assed</title><g id="Layer_2" data-name="Layer 2"><g id="Layer_1-2" data-name="Layer 1"><path class="cls-1" d="M48,13h3.31l3,10.3,3.07-10.36h2.73l3.32,10.36L66.48,13h3.25L64.81,28.11H62.16L58.81,17.83,55.42,28.11H52.86Z"/><path class="cls-1" d="M70.85,20.54v-.06c0-4.32,3.05-7.83,7.35-7.83,4.78,0,7.2,3.76,7.2,8.09,0,.31,0,.63-.06,1H73.79a4.65,4.65,0,0,0,4.83,3.81,5.47,5.47,0,0,0,4.08-1.79l2,1.79a7.64,7.64,0,0,1-6.15,2.82A7.52,7.52,0,0,1,70.85,20.54ZM82,19.43c-.22-2.19-1.53-4-3.81-4a4.49,4.49,0,0,0-4.41,4Z"/><path class="cls-1" d="M87.25,20.51v-.06c0-5,3.39-7.8,7-7.8a6.14,6.14,0,0,1,5.12,2.65V7.22h3.17V28H99.35V25.49a6,6,0,0,1-5.12,2.82C90.7,28.31,87.25,25.52,87.25,20.51Zm12.16,0v-.06a4.51,4.51,0,0,0-4.35-4.81,4.65,4.65,0,0,0-4.63,4.81v.06a4.68,4.68,0,0,0,4.63,4.81A4.52,4.52,0,0,0,99.41,20.51Z"/><path class="cls-1" d="M106.05,24.07h3.78V28h-3.78Z"/><path class="cls-1" d="M112.06,23.67v-.06c0-3.27,2.56-4.84,6.23-4.84a12.36,12.36,0,0,1,4,.63V19c0-2.16-1.3-3.27-3.72-3.27a10.33,10.33,0,0,0-4.3.94L113.37,14a13.48,13.48,0,0,1,5.69-1.22,5.28,5.28,0,0,1,4.39,1.68,6.35,6.35,0,0,1,1.77,4.64V28h-2.91V26.12a6.13,6.13,0,0,1-4.9,2.19C114.59,28.31,112.06,26.72,112.06,23.67Zm10.33-1.08v-1A9.58,9.58,0,0,0,119,21c-2.25,0-3.91.91-3.91,2.5v.06c0,1.45,1.63,2.28,3.31,2.28C120.66,25.81,122.39,24.53,122.39,22.59Z"/><path class="cls-1" d="M128.26,25.64l8.68-9.85h-8.37V13h12.36v2.36l-8.69,9.85h8.69V28H128.26Z"/><path class="cls-2" d="M32.21,36a6,6,0,0,1-3-.8L19.07,29.27,8.89,35.15A5.93,5.93,0,0,1,0,30V14.37a8,8,0,0,1,4-6.9L15.08,1.06h0a8,8,0,0,1,8,0l11.1,6.4a8,8,0,0,1,4,6.9V30a5.88,5.88,0,0,1-3,5.14A6,6,0,0,1,32.21,36ZM19.07,25.31a1.79,1.79,0,0,1,.92.25L31.08,32A2.25,2.25,0,0,0,34.45,30V14.37a4.29,4.29,0,0,0-2.14-3.71L21.22,4.25a4.34,4.34,0,0,0-4.3,0L5.82,10.66a4.3,4.3,0,0,0-2.14,3.71V30A2.25,2.25,0,0,0,7.05,32l11.1-6.4A1.77,1.77,0,0,1,19.07,25.31Z"/><path class="cls-2" d="M19.07,29a1.86,1.86,0,0,1-.92-.24L11.72,25a7,7,0,1,1,7.35-11.82A7,7,0,0,1,30,19a7,7,0,0,1-3.6,6.1l0,0L20,28.74A1.91,1.91,0,0,1,19.07,29Zm-4-13.31a3.28,3.28,0,0,0-1.6,6.15l.06,0L19.07,25l5.46-3.15.06,0h0a3.29,3.29,0,1,0-4.12-5,1.82,1.82,0,0,1-1.41.67h0a1.82,1.82,0,0,1-1.41-.66A3.29,3.29,0,0,0,15.12,15.67Z"/></g></g></svg>