<svg width="25" height="24" viewBox="0 0 25 24" fill="none" xmlns="http://www.w3.org/2000/svg">
<path d="M11.358 3.85526C11.9082 2.74039 13.498 2.74039 14.0482 3.85525L15.3161 6.4243C15.6803 7.16215 16.3842 7.67358 17.1985 7.7919L20.0336 8.20387C21.2639 8.38264 21.7552 9.8946 20.8649 10.7624L18.8134 12.7621C18.2242 13.3365 17.9553 14.164 18.0944 14.975L18.5787 17.7986C18.7889 19.024 17.5027 19.9584 16.4023 19.3799L13.8665 18.0467C13.1382 17.6638 12.2681 17.6638 11.5398 18.0467L9.00398 19.3799C7.90354 19.9584 6.61739 19.024 6.82755 17.7986L7.31185 14.975C7.45094 14.164 7.18207 13.3365 6.59285 12.7621L4.54135 10.7624C3.65108 9.8946 4.14234 8.38264 5.37267 8.20387L8.20778 7.7919C9.02205 7.67358 9.72597 7.16216 10.0901 6.4243L11.358 3.85526Z" stroke="#3A3A3A"/>
</svg>
