<svg width="14" height="14" viewBox="0 0 14 14" fill="none" xmlns="http://www.w3.org/2000/svg">
<path d="M10 1H4C2.34315 1 1 2.34315 1 4V10C1 11.6569 2.34315 13 4 13H10C11.6569 13 13 11.6569 13 10V4C13 2.34315 11.6569 1 10 1Z" stroke="white" stroke-width="1.5" stroke-linecap="round" stroke-linejoin="round"/>
<path d="M9.39904 6.62218C9.47309 7.12153 9.3878 7.63151 9.1553 8.07959C8.9228 8.52767 8.55493 8.89103 8.10402 9.11799C7.65311 9.34494 7.14211 9.42394 6.64371 9.34374C6.14532 9.26354 5.6849 9.02823 5.32795 8.67128C4.97099 8.31432 4.73568 7.85391 4.65548 7.35551C4.57528 6.85711 4.65428 6.34612 4.88124 5.89521C5.1082 5.44429 5.47155 5.07643 5.91963 4.84393C6.36771 4.61143 6.87769 4.52613 7.37704 4.60018C7.8864 4.67571 8.35795 4.91306 8.72206 5.27716C9.08616 5.64127 9.32351 6.11283 9.39904 6.62218Z" stroke="white" stroke-width="1.5" stroke-linecap="round" stroke-linejoin="round"/>
</svg>
