<svg width="261" height="117" viewBox="0 0 261 117" fill="none" xmlns="http://www.w3.org/2000/svg">
<rect x="13.0784" y="10.5055" width="247.446" height="106.191" rx="14" fill="#E9E3FC"/>
<path d="M205.867 106.919H12.5984C11.0452 106.921 9.5069 106.616 8.07152 106.022C6.63613 105.429 5.33178 104.558 4.23301 103.46C3.13424 102.363 2.26259 101.059 1.66789 99.6241C1.07319 98.1892 0.767089 96.6512 0.76709 95.0979V13.03C0.76709 9.89219 2.0136 6.88285 4.2324 4.66404C6.4512 2.44524 9.46055 1.19873 12.5984 1.19873H236.161C239.299 1.19873 242.308 2.44524 244.527 4.66404C246.746 6.88285 247.993 9.89219 247.993 13.03V95.0979C247.993 96.6512 247.686 98.1892 247.092 99.6241C246.497 101.059 245.625 102.363 244.527 103.46C243.428 104.558 242.123 105.429 240.688 106.022C239.253 106.616 237.714 106.921 236.161 106.919" stroke="#3B3B3B" stroke-miterlimit="10"/>
<path d="M51.8977 33.8276L44.8149 40.9104L37.7322 33.8276L41.4088 30.141H48.2111L51.8977 33.8276Z" fill="#FDD0D6"/>
<path d="M41.762 79.0488C52.717 79.0488 61.5977 70.168 61.5977 59.2131C61.5977 48.2581 52.717 39.3773 41.762 39.3773C30.807 39.3773 21.9263 48.2581 21.9263 59.2131C21.9263 70.168 30.807 79.0488 41.762 79.0488Z" stroke="#3B3B3B" stroke-width="0.93" stroke-miterlimit="10"/>
<path d="M68.6696 79.0492C81.3231 79.0492 91.5809 68.7915 91.5809 56.138C91.5809 43.4844 81.3231 33.2267 68.6696 33.2267C56.016 33.2267 45.7583 43.4844 45.7583 56.138C45.7583 68.7915 56.016 79.0492 68.6696 79.0492Z" stroke="#3B3B3B" stroke-width="0.93" stroke-miterlimit="10"/>
<path d="M48.8455 32.2946L41.7627 39.3773L34.6799 32.2946L38.3566 28.6079H45.1588L48.8455 32.2946Z" stroke="#3B3B3B" stroke-width="0.93" stroke-miterlimit="10"/>
<path d="M229.93 29.079H105.385C103.172 29.079 101.378 30.8731 101.378 33.0862V48.7244C101.378 50.9375 103.172 52.7316 105.385 52.7316H229.93C232.143 52.7316 233.937 50.9375 233.937 48.7244V33.0862C233.937 30.8731 232.143 29.079 229.93 29.079Z" fill="#FDD0D6"/>
<path d="M226.776 25.9235H102.231C100.018 25.9235 98.2241 27.7176 98.2241 29.9307V45.5689C98.2241 47.782 100.018 49.5761 102.231 49.5761H226.776C228.989 49.5761 230.783 47.782 230.783 45.5689V29.9307C230.783 27.7176 228.989 25.9235 226.776 25.9235Z" stroke="#3B3B3B" stroke-width="0.93" stroke-miterlimit="10"/>
<path d="M231.933 66.6765H103.382C102.275 66.6765 101.378 67.5736 101.378 68.6801V70.7939C101.378 71.9005 102.275 72.7975 103.382 72.7975H231.933C233.04 72.7975 233.937 71.9005 233.937 70.7939V68.6801C233.937 67.5736 233.04 66.6765 231.933 66.6765Z" fill="#FFE8E3"/>
<path d="M187.704 81.4131H103.382C102.275 81.4131 101.378 82.3101 101.378 83.4167V85.5305C101.378 86.6371 102.275 87.5341 103.382 87.5341H187.704C188.81 87.5341 189.707 86.6371 189.707 85.5305V83.4167C189.707 82.3101 188.81 81.4131 187.704 81.4131Z" fill="#FFE8E3"/>
<path d="M216.946 94.3367L219.1 109.825L222.876 106.038L229.929 113.1L233.786 109.193L227.124 102.632L231.161 98.9049L216.946 94.3367Z" fill="#FDD0D6"/>
<path d="M214.582 91.9722L216.726 107.46L220.513 103.673L227.565 110.736L231.422 106.819L224.76 100.267L228.798 96.5404L214.582 91.9722Z" stroke="#3B3B3B" stroke-width="0.93" stroke-miterlimit="10"/>
<path d="M219.111 88.5361L219.867 84.3486M211.179 89.6782L206.137 83.8477M211.181 96.5305H205.636M226.666 91.9623L229.179 89.6782M212.69 102.241L210.145 104.886" stroke="#3B3B3B"/>
<path d="M228.779 64.3125H100.228C99.1212 64.3125 98.2241 65.2095 98.2241 66.3161V68.4299C98.2241 69.5365 99.1212 70.4335 100.228 70.4335H228.779C229.886 70.4335 230.783 69.5365 230.783 68.4299V66.3161C230.783 65.2095 229.886 64.3125 228.779 64.3125Z" stroke="#3B3B3B" stroke-width="0.93" stroke-miterlimit="10"/>
<path d="M184.55 79.0488H100.228C99.1212 79.0488 98.2241 79.9459 98.2241 81.0524V83.1662C98.2241 84.2728 99.1212 85.1699 100.228 85.1699H184.55C185.656 85.1699 186.553 84.2728 186.553 83.1662V81.0524C186.553 79.9459 185.656 79.0488 184.55 79.0488Z" stroke="#3B3B3B" stroke-width="0.93" stroke-miterlimit="10"/>
</svg>
