<svg width="203" height="184" viewBox="0 0 203 184" fill="none" xmlns="http://www.w3.org/2000/svg">
<path d="M87.0682 6.59143H66.5094C54.6656 6.59143 45.0642 16.1707 45.0642 27.9873V48.4988C45.0642 60.3155 54.6656 69.8947 66.5094 69.8947H87.0682C98.9121 69.8947 108.513 60.3155 108.513 48.4988V27.9873C108.513 16.1707 98.9121 6.59143 87.0682 6.59143Z" fill="#FDD0D6"/>
<path d="M172.285 83.019H134.145C117.276 83.019 103.601 96.6255 103.601 113.41V151.358C103.601 168.142 117.276 181.749 134.145 181.749H172.285C189.154 181.749 202.83 168.142 202.83 151.358V113.41C202.83 96.6255 189.154 83.019 172.285 83.019Z" fill="#E9E3FC"/>
<path d="M81.4652 1H60.9064C49.0625 1 39.4612 10.5793 39.4612 22.3959V42.9074C39.4612 54.724 49.0625 64.3033 60.9064 64.3033H81.4652C93.3091 64.3033 102.91 54.724 102.91 42.9074V22.3959C102.91 10.5793 93.3091 1 81.4652 1Z" stroke="#3B3B3B" stroke-miterlimit="10"/>
<path d="M172.591 75.2758H116.104C104.26 75.2758 94.6587 84.855 94.6587 96.6716V153.028C94.6587 164.845 104.26 174.424 116.104 174.424H172.591C184.434 174.424 194.036 164.845 194.036 153.028V96.6716C194.036 84.855 184.434 75.2758 172.591 75.2758Z" stroke="#3B3B3B" stroke-miterlimit="10"/>
<path d="M86.3653 34.506V27.5595C86.3653 26.1331 84.521 24.8493 81.7188 24.1219V19.8427C81.7188 18.5875 79.2026 17.589 76.0859 17.589C72.9692 17.589 70.3672 18.5875 70.3672 19.8427V24.1219C67.5078 24.8493 65.7207 26.1188 65.7207 27.5595V34.506C62.4181 35.6471 60.3308 37.3588 60.3308 39.2274V54.4327C60.3308 57.8846 67.3505 60.6803 76.0573 60.6803C84.7641 60.6803 91.7838 57.8275 91.7838 54.4327V39.2274C91.7695 37.3445 89.6679 35.6471 86.3653 34.506ZM62.7327 42.4653C63.0085 42.6484 63.2949 42.8151 63.5905 42.9645C63.2949 42.8151 63.0085 42.6484 62.7327 42.4653ZM88.7243 42.9645C89.0124 42.8183 89.2895 42.6514 89.5535 42.4653C89.2665 42.6545 88.9654 42.8214 88.6528 42.9645H88.7243Z" fill="#FFE8E3"/>
<path d="M55.3977 95.6387H28.6198C16.7759 95.6387 7.17456 105.218 7.17456 117.035V143.751C7.17456 155.568 16.7759 165.147 28.6198 165.147H55.3977C67.2416 165.147 76.8429 155.568 76.8429 143.751V117.035C76.8429 105.218 67.2416 95.6387 55.3977 95.6387Z" fill="#FFE8E3"/>
<path d="M36.3299 117.463C37.3318 118.189 38.0051 119.281 38.2028 120.501C38.3727 121.582 38.1618 122.689 37.6059 123.633C37.05 124.577 36.1835 125.3 35.1537 125.678C34.124 126.056 32.9947 126.067 31.958 125.708C30.9213 125.349 30.0412 124.643 29.4674 123.71C29.305 124.358 29.0069 124.965 28.5928 125.49C28.1786 126.015 27.6578 126.447 27.0645 126.757C26.4711 127.067 25.8188 127.248 25.1503 127.289C24.4818 127.329 23.8123 127.228 23.1857 126.992C22.5592 126.756 21.9898 126.39 21.515 125.919C21.0402 125.448 20.6707 124.881 20.4309 124.258C20.191 123.634 20.0862 122.966 20.1233 122.299C20.1605 121.632 20.3387 120.98 20.6463 120.387C19.4844 120.305 18.3933 119.799 17.5808 118.966C16.7682 118.134 16.2909 117.032 16.2397 115.871C16.1885 114.71 16.567 113.571 17.3031 112.67C18.0392 111.769 19.0815 111.17 20.2317 110.987C21.0973 110.849 21.9843 110.958 22.7908 111.3C22.5252 110.811 22.3416 110.281 22.2475 109.731C22.1057 108.513 22.4433 107.287 23.1893 106.312C23.9354 105.337 25.0316 104.688 26.2471 104.504C27.4626 104.319 28.7026 104.612 29.706 105.321C30.7093 106.03 31.3978 107.1 31.6262 108.305C31.6615 108.642 31.6615 108.981 31.6262 109.318C32.2739 108.783 33.0544 108.433 33.8851 108.305C35.1023 107.982 36.3984 108.154 37.4883 108.784C38.5782 109.414 39.3726 110.45 39.6968 111.664C40.021 112.879 39.8484 114.172 39.217 115.259C38.5856 116.346 37.5471 117.139 36.3299 117.463Z" fill="#FDD0D6"/>
<path d="M55.6989 123.596C55.7161 124.164 55.6062 124.727 55.3771 125.246C55.148 125.766 54.8055 126.227 54.3747 126.597C53.9438 126.968 53.4356 127.237 52.887 127.386C52.3384 127.536 51.7633 127.561 51.2038 127.46C50.6442 127.358 50.1144 127.134 49.653 126.803C49.1915 126.471 48.8101 126.041 48.5367 125.544C48.2632 125.046 48.1045 124.494 48.0723 123.928C48.0401 123.361 48.1351 122.795 48.3503 122.27C47.6557 122.558 46.8918 122.637 46.1527 122.498C45.4136 122.358 44.7314 122.006 44.19 121.485C43.4767 120.772 43.0762 119.805 43.0762 118.797C43.0762 117.789 43.4767 116.822 44.19 116.108C44.7528 115.527 45.4911 115.146 46.2916 115.024C45.9827 114.56 45.7794 114.035 45.696 113.485C45.6126 112.934 45.6511 112.373 45.8087 111.839C45.9664 111.305 46.2395 110.812 46.6087 110.395C46.9778 109.977 47.4342 109.646 47.9456 109.424C48.457 109.201 49.0111 109.094 49.5687 109.108C50.1264 109.122 50.6741 109.258 51.1734 109.507C51.6726 109.755 52.1113 110.11 52.4584 110.545C52.8056 110.981 53.0528 111.487 53.1827 112.028C53.4107 111.524 53.7465 111.076 54.1664 110.715C54.5863 110.354 55.0803 110.089 55.6136 109.939C56.147 109.788 56.7069 109.756 57.2542 109.844C57.8014 109.932 58.3228 110.138 58.7817 110.448C59.2406 110.758 59.626 111.165 59.911 111.639C60.1959 112.114 60.3734 112.644 60.4311 113.194C60.4888 113.745 60.4253 114.3 60.245 114.823C60.0647 115.346 59.7721 115.824 59.3875 116.222C59.1982 116.417 58.9871 116.589 58.7584 116.736C59.2936 116.87 59.793 117.12 60.2218 117.467C60.6506 117.814 60.9986 118.249 61.2416 118.744C61.4846 119.238 61.6168 119.78 61.629 120.33C61.6412 120.881 61.5331 121.428 61.3122 121.932C61.0914 122.437 60.763 122.888 60.35 123.253C59.937 123.618 59.4491 123.89 58.9204 124.048C58.3917 124.206 57.8348 124.248 57.2884 124.17C56.7419 124.092 56.2191 123.896 55.7561 123.596H55.6989Z" fill="#FDD0D6"/>
<path d="M49.2231 89.4771H22.4452C10.6013 89.4771 1 99.0563 1 110.873V137.589C1 149.406 10.6013 158.985 22.4452 158.985H49.2231C61.067 158.985 70.6684 149.406 70.6684 137.589V110.873C70.6684 99.0563 61.067 89.4771 49.2231 89.4771Z" stroke="#3B3B3B" stroke-miterlimit="10"/>
<path d="M82.4362 26.3898C82.4362 28.6577 77.8326 30.4978 72.1567 30.4978C66.4809 30.4978 61.863 28.6577 61.863 26.3898C61.863 24.9634 63.7073 23.6939 66.5095 22.9521V24.1361C66.5095 25.3913 69.04 26.3898 72.2282 26.3898C75.4164 26.3898 77.8612 25.3913 77.8612 24.1361V22.9521C80.5919 23.7367 82.4362 24.9634 82.4362 26.3898Z" stroke="#3B3B3B" stroke-miterlimit="10"/>
<path d="M33.2535 114.31C33.8191 114.722 34.2863 115.254 34.6216 115.868C34.9569 116.481 35.152 117.161 35.1928 117.859C35.2336 118.556 35.1192 119.254 34.8578 119.902C34.5964 120.551 34.1944 121.133 33.6808 121.608C33.1671 122.083 32.5544 122.439 31.8867 122.65C31.219 122.86 30.5128 122.921 29.8187 122.828C29.1247 122.734 28.46 122.488 27.8723 122.108C27.2846 121.728 26.7885 121.223 26.4196 120.629C26.2666 121.286 25.9747 121.903 25.5634 122.438C25.1521 122.973 24.631 123.415 24.0348 123.733C23.4387 124.051 22.7814 124.238 22.1068 124.282C21.4323 124.327 20.756 124.226 20.1234 123.989C19.4908 123.751 18.9163 123.381 18.4385 122.904C17.9607 122.427 17.5906 121.853 17.3529 121.222C17.1152 120.591 17.0154 119.916 17.0602 119.243C17.1051 118.57 17.2935 117.914 17.6128 117.32C16.4503 117.24 15.3577 116.737 14.5433 115.905C13.7289 115.074 13.2496 113.972 13.1966 112.811C13.1436 111.649 13.5206 110.509 14.256 109.607C14.9913 108.705 16.0334 108.105 17.1839 107.92C18.0541 107.776 18.9474 107.885 19.7573 108.234C19.4815 107.743 19.2974 107.207 19.214 106.65C19.0956 106.025 19.1045 105.383 19.2403 104.762C19.3762 104.14 19.6361 103.552 20.0046 103.033C20.3731 102.514 20.8427 102.074 21.3853 101.74C21.9279 101.406 22.5323 101.185 23.1626 101.089C23.7929 100.993 24.4361 101.025 25.0538 101.182C25.6715 101.34 26.251 101.62 26.7578 102.006C27.2646 102.392 27.6883 102.876 28.0035 103.429C28.3188 103.982 28.5192 104.592 28.5928 105.224C28.6209 105.556 28.6209 105.89 28.5928 106.223C29.2401 105.695 30.0156 105.348 30.8407 105.215C31.6659 105.083 32.5114 105.17 33.2919 105.468C34.0724 105.766 34.7601 106.265 35.2856 106.913C35.8111 107.562 36.1556 108.337 36.2844 109.161C36.4513 110.236 36.2409 111.336 35.6886 112.274C35.1363 113.213 34.2761 113.932 33.2535 114.31V114.31Z" stroke="#3B3B3B" stroke-miterlimit="10"/>
<path d="M25.1054 115.637C26.4162 115.637 27.4787 114.577 27.4787 113.269C27.4787 111.962 26.4162 110.901 25.1054 110.901C23.7947 110.901 22.7322 111.962 22.7322 113.269C22.7322 114.577 23.7947 115.637 25.1054 115.637Z" stroke="#3B3B3B" stroke-miterlimit="10"/>
<path d="M52.6116 120.529C52.6161 121.088 52.497 121.641 52.2626 122.148C52.0283 122.656 51.6845 123.105 51.2558 123.465C50.8272 123.824 50.3243 124.085 49.783 124.228C49.2417 124.371 48.6755 124.393 48.1246 124.292C47.5738 124.192 47.052 123.971 46.5965 123.646C46.1411 123.321 45.7631 122.9 45.4898 122.412C45.2164 121.925 45.0543 121.383 45.0151 120.826C44.9759 120.268 45.0606 119.709 45.263 119.188C44.4536 119.532 43.5499 119.584 42.7059 119.337C41.862 119.09 41.1298 118.559 40.6342 117.835C40.1386 117.11 39.9101 116.236 39.9877 115.362C40.0653 114.488 40.4442 113.667 41.0598 113.041C41.625 112.453 42.3686 112.067 43.1757 111.942C42.6534 111.16 42.4412 110.211 42.5801 109.281C42.719 108.351 43.1991 107.505 43.9275 106.908C44.6558 106.311 45.5803 106.006 46.5219 106.05C47.4634 106.095 48.3547 106.487 49.0231 107.15C49.5181 107.629 49.8695 108.237 50.0382 108.904C50.2268 108.494 50.4829 108.118 50.7959 107.792C51.1507 107.435 51.5725 107.151 52.0372 106.957C52.502 106.763 53.0004 106.662 53.5043 106.66C54.0081 106.658 54.5074 106.755 54.9736 106.945C55.4398 107.136 55.8639 107.416 56.2215 107.77C56.5792 108.124 56.8634 108.545 57.0581 109.009C57.2527 109.472 57.3539 109.97 57.3559 110.472C57.3579 110.975 57.2607 111.473 57.0697 111.938C56.8787 112.403 56.5978 112.827 56.243 113.183C56.0587 113.378 55.8524 113.55 55.6282 113.697C56.1611 113.835 56.6576 114.087 57.0834 114.435C57.5092 114.783 57.8542 115.219 58.0945 115.713C58.3349 116.207 58.4648 116.748 58.4754 117.297C58.4859 117.846 58.3769 118.391 58.1557 118.894C57.9346 119.397 57.6066 119.846 57.1945 120.21C56.7824 120.574 56.2959 120.845 55.7687 121.003C55.2416 121.161 54.6863 121.203 54.1412 121.126C53.5961 121.05 53.0742 120.856 52.6116 120.558V120.529Z" stroke="#3B3B3B" stroke-miterlimit="10"/>
<path d="M49.3679 116.707C50.426 116.707 51.2837 115.851 51.2837 114.795C51.2837 113.74 50.426 112.884 49.3679 112.884C48.3099 112.884 47.4521 113.74 47.4521 114.795C47.4521 115.851 48.3099 116.707 49.3679 116.707Z" stroke="#3B3B3B" stroke-miterlimit="10"/>
<path d="M48.0206 116.165C48.0206 116.165 37.6268 125.365 34.3528 148.972C34.3196 149.136 34.2303 149.285 34.1 149.391C33.9697 149.498 33.8064 149.556 33.638 149.556C33.4695 149.556 33.3063 149.498 33.176 149.391C33.0457 149.285 32.9563 149.136 32.9231 148.972L25.4602 115.623" stroke="#3B3B3B" stroke-miterlimit="10"/>
<path d="M82.4362 26.3894V36.3742C82.4362 38.6421 77.8326 40.4822 72.1567 40.4822C66.4809 40.4822 61.863 38.6421 61.863 36.3742V26.3894C61.863 28.6574 66.4666 30.4974 72.1567 30.4974C77.8469 30.4974 82.4362 28.7002 82.4362 26.3894Z" stroke="#3B3B3B" stroke-miterlimit="10"/>
<path d="M87.825 38.1008C87.825 41.5669 80.8053 44.3626 72.0986 44.3626C63.3918 44.3626 56.3721 41.5098 56.3721 38.1008C56.3721 36.2179 58.4594 34.5348 61.762 33.3794V36.3748C61.762 38.6428 66.3655 40.4828 72.0557 40.4828C77.7458 40.4828 82.3351 38.6428 82.3351 36.3748V33.3794C85.7377 34.5348 87.825 36.2179 87.825 38.1008Z" stroke="#3B3B3B" stroke-width="0.39" stroke-miterlimit="10"/>
<path d="M87.825 38.1007V53.3061C87.825 56.7579 80.8053 59.5679 72.0986 59.5679C63.3918 59.5679 56.3721 56.7151 56.3721 53.3061V38.1007C56.3721 41.5668 63.3918 44.3626 72.0986 44.3626C80.8053 44.3626 87.825 41.5668 87.825 38.1007Z" stroke="#3B3B3B" stroke-miterlimit="10"/>
<path d="M77.7872 18.7159C77.7872 19.9568 75.271 20.9696 72.1543 20.9696C69.0376 20.9696 66.4355 19.9568 66.4355 18.7159C66.4355 17.4749 68.9661 16.4622 72.1543 16.4622C75.3425 16.4622 77.7872 17.4749 77.7872 18.7159Z" stroke="#3B3B3B" stroke-miterlimit="10"/>
<path d="M77.7872 18.7157V24.1788C77.7872 25.434 75.271 26.4325 72.1543 26.4325C69.0376 26.4325 66.4355 25.434 66.4355 24.1788V18.7157C66.4355 19.9567 68.9661 20.9694 72.1543 20.9694C75.3425 20.9694 77.7872 19.9567 77.7872 18.7157Z" stroke="#3B3B3B" stroke-miterlimit="10"/>
<path d="M142.709 105.872L136.061 112.519L129.399 105.872L132.859 102.42H139.249L142.709 105.872Z" fill="#FDD0D6"/>
<path d="M133.189 148.279C143.485 148.279 151.832 139.951 151.832 129.678C151.832 119.406 143.485 111.078 133.189 111.078C122.893 111.078 114.546 119.406 114.546 129.678C114.546 139.951 122.893 148.279 133.189 148.279Z" stroke="#3B3B3B" stroke-miterlimit="10"/>
<path d="M158.479 148.279C170.37 148.279 180.01 138.661 180.01 126.797C180.01 114.933 170.37 105.316 158.479 105.316C146.588 105.316 136.948 114.933 136.948 126.797C136.948 138.661 146.588 148.279 158.479 148.279Z" stroke="#3B3B3B" stroke-miterlimit="10"/>
<path d="M139.836 104.431L133.188 111.078L126.526 104.431L129.986 100.979H136.376L139.836 104.431Z" stroke="#3B3B3B" stroke-miterlimit="10"/>
</svg>
