<svg width="112" height="176" viewBox="0 0 112 176" fill="none" xmlns="http://www.w3.org/2000/svg">
<path d="M48.6458 42.6966C44.2677 44.273 42.0156 48.1931 42.0156 51.7192C42.0156 57.4832 46.655 65.548 63.1695 58.2529C87.5858 47.4673 97.4787 21.1252 94.9528 10.1319C93.1961 2.4867 82.3236 1.52411 78.7453 8.16141C76.374 12.56 80.4994 17.6682 82.3236 18.7398C82.2885 20.5374 81.4715 27.327 75.1671 35.0221C65.9058 46.3263 60.5384 47.3634 56.3286 47.3634C55.7673 45.5658 53.0239 41.1202 48.6458 42.6966Z" fill="#FFE8E3"/>
<path d="M45.9115 39.9622C41.5334 41.5386 39.2812 45.4587 39.2812 48.9848C39.2812 54.7489 43.9206 62.8136 60.4351 55.5185C84.8514 44.7329 94.7444 18.3908 92.2184 7.39757C90.4618 -0.247677 79.5892 -1.21027 76.0109 5.42704C73.6396 9.82564 77.765 14.9338 79.5892 16.0054C79.5541 17.8031 78.7371 24.5927 72.4328 32.2877C63.1714 43.592 57.804 44.629 53.5942 44.629C53.0329 42.8314 50.2896 38.3858 45.9115 39.9622Z" stroke="black"/>
<path opacity="0.5" d="M39.4065 124.775C27.533 124.075 27.8303 133.734 34.7577 123.818C41.6852 113.902 24.5359 114.154 24.6874 119.619C24.8388 125.084 38.8524 116.72 31.4446 110.984C24.0367 105.249 17.7051 111.152 21.6524 114.362C25.5997 117.573 32.1095 104.411 25.3042 102.241C16.169 99.3285 13.589 105.147 17.3167 106.853C21.275 108.664 27.908 99.6562 22.2739 96.9924C16.6397 94.3286 12.3739 97.3456 14.5097 100.099C16.6454 102.852 25.3604 97.2932 22.5802 92.1624C19.8 87.0316 11.5935 88.5838 12.1749 91.7981C12.7563 95.0124 23.3966 91.0539 22.7567 85.6887C22.1168 80.3235 16.2758 79.5086 14.0708 82.7842C11.8658 86.0599 22.3154 85.3973 24.4302 79.4429C26.5451 73.4886 22.883 70.1413 19.2204 73.2572C15.5578 76.3731 31.5282 77.0744 30.6652 72.1111C29.9748 68.1404 37.6121 59.9686 41.5171 56.3791" stroke="#532BC4"/>
<rect x="18.7734" y="140.453" width="92.9688" height="35.5469" rx="6" fill="#FDD0D6"/>
<path d="M46.7797 119.902C47.6101 117.475 49.8915 115.844 52.4567 115.844H79.3175C81.9352 115.844 84.2508 117.541 85.039 120.037L91.918 141.82H39.2812L46.7797 119.902Z" fill="#FDD0D6"/>
<rect x="13.8047" y="136.852" width="91.9688" height="34.5469" rx="5.5" stroke="black"/>
<path d="M41.7841 115.962C42.5452 113.737 44.6365 112.242 46.988 112.242H73.8488C76.2483 112.242 78.3709 113.798 79.0935 116.086L85.767 137.219H34.512L41.7841 115.962Z" stroke="black"/>
</svg>
