<svg width="14" height="10" viewBox="0 0 14 10" fill="none" xmlns="http://www.w3.org/2000/svg">
<path d="M12.92 1.45152C12.8488 1.16686 12.7037 0.906042 12.4994 0.695412C12.2951 0.484783 12.0388 0.3318 11.7564 0.251916C10.7248 5.96046e-08 6.59815 0 6.59815 0C6.59815 0 2.47152 0 1.43986 0.275908C1.15751 0.355792 0.90123 0.508775 0.696919 0.719404C0.492609 0.930034 0.347501 1.19085 0.276251 1.47551C0.0874427 2.52249 -0.00491382 3.58459 0.000342873 4.64845C-0.00638731 5.72032 0.085975 6.79052 0.276251 7.84539C0.354801 8.12121 0.50316 8.3721 0.706994 8.57383C0.910829 8.77557 1.16325 8.92132 1.43986 8.99701C2.47152 9.27291 6.59815 9.27291 6.59815 9.27291C6.59815 9.27291 10.7248 9.27291 11.7564 8.99701C12.0388 8.91712 12.2951 8.76414 12.4994 8.55351C12.7037 8.34288 12.8488 8.08206 12.92 7.7974C13.1074 6.7583 13.1998 5.7043 13.196 4.64845C13.2027 3.57658 13.1103 2.50638 12.92 1.45152Z" fill="white"/>
<path d="M5.24805 6.6102L8.6969 4.64885L5.24805 2.6875V6.6102Z" fill="#532BC4"/>
</svg>
